<svg width="1259" height="104" viewBox="0 0 1259 104" fill="none" xmlns="http://www.w3.org/2000/svg">
<path fill-rule="evenodd" clip-rule="evenodd" d="M1259 0L1206.54 13.4815C1154.08 26.963 1049.17 53.9259 944.25 55.8519C839.333 57.7778 734.417 34.6667 629.5 23.1111C524.583 11.5556 419.667 11.5556 314.75 15.4074C209.833 19.2593 104.917 26.963 52.4583 30.8148L0 34.6667V104H52.4583C104.917 104 209.833 104 314.75 104C419.667 104 524.583 104 629.5 104C734.417 104 839.333 104 944.25 104C1049.17 104 1154.08 104 1206.54 104H1259V0Z" fill="#3F3D56"/>
</svg>
